# xmcd
#
# Track frame offsets:
#	150
#	17712
#	39713
#	53584
#	69720
#	90286
#	114252
#	136479
#	156674
#	173409
#
# Disc length: 2625 seconds
#
# Revision: 1
# Processed by: cddbd v1.4b42PL1 Copyright (c) Steve Scherf et al.
# Submitted via: audiograbber 1.80.04
#
DISCID=7b0a3f0a
DTITLE=Mike Graham - Find You A Highway
DYEAR=2001
DGENRE=Country
TTITLE0=Be Alright
TTITLE1=67
TTITLE2=I Feel a Party Comin' On
TTITLE3=Way Past Last Call
TTITLE4=Joe
TTITLE5=Half of Lubbock
TTITLE6=Riding on the Rails
TTITLE7=Sacking a Small Town
TTITLE8=Marie's
TTITLE9=Some Things
EXTD=http://www.mikegraham.com
EXTT0=
EXTT1=
EXTT2=
EXTT3=
EXTT4=
EXTT5=
EXTT6=
EXTT7=
EXTT8=
EXTT9=
PLAYORDER=
